<svg xmlns="http://www.w3.org/2000/svg" xmlns:xlink="http://www.w3.org/1999/xlink" width="40" zoomAndPan="magnify" viewBox="0 0 30 30.000001" height="40" preserveAspectRatio="xMidYMid meet" version="1.0"><defs><clipPath id="bb535dd7a2"><path d="M 2.207031 0 L 27.609375 0 L 27.609375 25.402344 L 2.207031 25.402344 Z M 2.207031 0 " clip-rule="nonzero"/></clipPath><clipPath id="4dca02088f"><path d="M 18.628906 19.867188 L 28.0625 19.867188 L 28.0625 29.03125 L 18.628906 29.03125 Z M 18.628906 19.867188 " clip-rule="nonzero"/></clipPath></defs><g clip-path="url(#bb535dd7a2)"><path fill="#8c52ff" d="M 14.90625 0 C 13.667969 10.460938 12.667969 11.464844 2.207031 12.703125 C 2.226562 12.703125 2.25 12.707031 2.269531 12.710938 C 12.671875 13.945312 13.671875 14.964844 14.90625 25.402344 C 16.144531 14.941406 17.148438 13.941406 27.609375 12.703125 C 17.148438 11.464844 16.144531 10.460938 14.90625 0 Z M 14.90625 0 " fill-opacity="1" fill-rule="nonzero"/></g><g clip-path="url(#4dca02088f)"><path fill="#a6a6a6" d="M 23.347656 19.867188 C 22.886719 23.75 22.511719 24.125 18.628906 24.585938 C 18.636719 24.585938 18.644531 24.585938 18.652344 24.585938 C 22.515625 25.046875 22.886719 25.425781 23.347656 29.300781 C 23.804688 25.417969 24.179688 25.042969 28.0625 24.585938 C 24.179688 24.125 23.804688 23.75 23.347656 19.867188 Z M 23.347656 19.867188 " fill-opacity="1" fill-rule="nonzero"/></g></svg>